<svg width="50" height="50" viewBox="0 0 50 50" fill="currentColor" id="moon" xmlns="http://www.w3.org/2000/svg">
<path d="M49.8838 34.2366C50.4505 32.8866 48.831 31.7366 47.4727 32.3366C44.7576 33.5284 41.8239 34.1414 38.8587 34.1366C27.2336 34.1366 17.8113 24.9032 17.8113 13.5114C17.807 9.66511 18.8998 5.89736 20.9613 2.65019C21.7502 1.40573 20.803 -0.316506 19.3585 0.0501646C8.2223 2.89186 0 12.8142 0 24.6171C0 38.6367 11.5973 50.0007 25.9058 50.0007C36.7393 50.0007 46.0171 43.4867 49.8838 34.2366Z"/>
<path d="M35.0309 0.286278C33.5587 -0.697065 31.8031 1.05851 32.7837 2.53074L34.5337 5.15577C35.2436 6.22012 35.6224 7.47086 35.6224 8.75025C35.6224 10.0296 35.2436 11.2804 34.5337 12.3447L32.7837 14.9698C31.8031 16.442 33.5614 18.1976 35.0337 17.2142L37.6559 15.4642C38.7203 14.7543 39.971 14.3754 41.2504 14.3754C42.5298 14.3754 43.7805 14.7543 44.8449 15.4642L47.4699 17.2142C48.9421 18.1976 50.6977 16.442 49.7144 14.9698L47.9644 12.3447C47.2544 11.2804 46.8756 10.0296 46.8756 8.75025C46.8756 7.47086 47.2544 6.22012 47.9644 5.15577L49.7144 2.53074C50.6977 1.05851 48.9421 -0.697065 47.4671 0.286278L44.8449 2.0363C43.7805 2.74621 42.5298 3.12506 41.2504 3.12506C39.971 3.12506 38.7203 2.74621 37.6559 2.0363L35.0309 0.286278Z"/>
</svg>
