<svg width="50" height="50" viewBox="0 0 50 50" fill="none" xmlns="http://www.w3.org/2000/svg">
<path fill-rule="evenodd" clip-rule="evenodd" d="M25 0C25.8288 0 26.6237 0.32924 27.2097 0.915291C27.7958 1.50134 28.125 2.2962 28.125 3.125V6.25C28.125 7.0788 27.7958 7.87366 27.2097 8.45971C26.6237 9.04576 25.8288 9.375 25 9.375C24.1712 9.375 23.3763 9.04576 22.7903 8.45971C22.2042 7.87366 21.875 7.0788 21.875 6.25V3.125C21.875 2.2962 22.2042 1.50134 22.7903 0.915291C23.3763 0.32924 24.1712 0 25 0ZM37.5 25C37.5 28.3152 36.183 31.4946 33.8388 33.8388C31.4946 36.183 28.3152 37.5 25 37.5C21.6848 37.5 18.5054 36.183 16.1612 33.8388C13.817 31.4946 12.5 28.3152 12.5 25C12.5 21.6848 13.817 18.5054 16.1612 16.1612C18.5054 13.817 21.6848 12.5 25 12.5C28.3152 12.5 31.4946 13.817 33.8388 16.1612C36.183 18.5054 37.5 21.6848 37.5 25ZM36.05 40.4687L38.2594 42.6781C38.8488 43.2474 39.6381 43.5623 40.4575 43.5552C41.2769 43.5481 42.0607 43.2195 42.6401 42.6401C43.2195 42.0607 43.5481 41.2769 43.5552 40.4575C43.5623 39.6381 43.2474 38.8488 42.6781 38.2594L40.4687 36.05C39.8794 35.4808 39.09 35.1658 38.2706 35.1729C37.4513 35.18 36.6675 35.5087 36.0881 36.0881C35.5087 36.6675 35.18 37.4513 35.1729 38.2706C35.1658 39.09 35.4808 39.8794 36.05 40.4687ZM42.675 7.32187C43.2608 7.9079 43.59 8.70261 43.59 9.53125C43.59 10.3599 43.2608 11.1546 42.675 11.7406L40.4687 13.95C40.1805 14.2485 39.8357 14.4865 39.4544 14.6503C39.0731 14.8141 38.6631 14.9003 38.2481 14.9039C37.8332 14.9075 37.4217 14.8284 37.0376 14.6713C36.6536 14.5142 36.3047 14.2821 36.0113 13.9887C35.7179 13.6953 35.4858 13.3464 35.3287 12.9624C35.1716 12.5783 35.0925 12.1668 35.0961 11.7519C35.0997 11.3369 35.1859 10.9269 35.3497 10.5456C35.5135 10.1643 35.7515 9.81952 36.05 9.53125L38.2594 7.32187C38.8454 6.73603 39.6401 6.40692 40.4687 6.40692C41.2974 6.40692 42.089 6.73603 42.675 7.32187ZM46.875 28.125C47.7038 28.125 48.4987 27.7958 49.0847 27.2097C49.6708 26.6237 50 25.8288 50 25C50 24.1712 49.6708 23.3763 49.0847 22.7903C48.4987 22.2042 47.7038 21.875 46.875 21.875H43.75C42.9212 21.875 42.1263 22.2042 41.5403 22.7903C40.9542 23.3763 40.625 24.1712 40.625 25C40.625 25.8288 40.9542 26.6237 41.5403 27.2097C42.1263 27.7958 42.9212 28.125 43.75 28.125H46.875ZM25 40.625C25.8288 40.625 26.6237 40.9542 27.2097 41.5403C27.7958 42.1263 28.125 42.9212 28.125 43.75V46.875C28.125 47.7038 27.7958 48.4987 27.2097 49.0847C26.6237 49.6708 25.8288 50 25 50C24.1712 50 23.3763 49.6708 22.7903 49.0847C22.2042 48.4987 21.875 47.7038 21.875 46.875V43.75C21.875 42.9212 22.2042 42.1263 22.7903 41.5403C23.3763 40.9542 24.1712 40.625 25 40.625ZM9.53125 13.95C9.82139 14.2403 10.1659 14.4707 10.545 14.6279C10.9242 14.7851 11.3306 14.8661 11.7411 14.8663C12.1515 14.8664 12.558 14.7857 12.9373 14.6288C13.3166 14.4718 13.6612 14.2417 13.9516 13.9516C14.2419 13.6614 14.4723 13.3169 14.6295 12.9378C14.7867 12.5586 14.8677 12.1522 14.8678 11.7417C14.868 11.3313 14.7873 10.9248 14.6303 10.5455C14.4734 10.1662 14.2433 9.8216 13.9531 9.53125L11.7406 7.32187C11.1512 6.75263 10.3619 6.43765 9.5425 6.44477C8.72313 6.45189 7.93934 6.78054 7.35994 7.35994C6.78054 7.93934 6.45189 8.72313 6.44477 9.5425C6.43765 10.3619 6.75263 11.1512 7.32187 11.7406L9.53125 13.95ZM13.95 40.4687L11.7406 42.6781C11.1512 43.2474 10.3619 43.5623 9.5425 43.5552C8.72313 43.5481 7.93934 43.2195 7.35994 42.6401C6.78054 42.0607 6.45189 41.2769 6.44477 40.4575C6.43765 39.6381 6.75263 38.8488 7.32187 38.2594L9.53125 36.05C10.1206 35.4808 10.91 35.1658 11.7294 35.1729C12.5487 35.18 13.3325 35.5087 13.9119 36.0881C14.4913 36.6675 14.82 37.4513 14.8271 38.2706C14.8342 39.09 14.5192 39.8794 13.95 40.4687ZM6.25 28.125C7.0788 28.125 7.87366 27.7958 8.45971 27.2097C9.04576 26.6237 9.375 25.8288 9.375 25C9.375 24.1712 9.04576 23.3763 8.45971 22.7903C7.87366 22.2042 7.0788 21.875 6.25 21.875H3.125C2.2962 21.875 1.50134 22.2042 0.915291 22.7903C0.32924 23.3763 0 24.1712 0 25C0 25.8288 0.32924 26.6237 0.915291 27.2097C1.50134 27.7958 2.2962 28.125 3.125 28.125H6.25Z" fill="white"/>
</svg>
