<svg id="visual" viewBox="0 0 1920 500" width="1920" height="500" xmlns="http://www.w3.org/2000/svg" xmlns:xlink="http://www.w3.org/1999/xlink" version="1.1"><path d="M0 128L35.5 141.8C71 155.7 142 183.3 213.2 197.2C284.3 211 355.7 211 426.8 193.7C498 176.3 569 141.7 640 152.8C711 164 782 221 853.2 233.3C924.3 245.7 995.7 213.3 1066.8 213.3C1138 213.3 1209 245.7 1280 244.3C1351 243 1422 208 1493.2 197.3C1564.3 186.7 1635.7 200.3 1706.8 190C1778 179.7 1849 145.3 1884.5 128.2L1920 111L1920 501L1884.5 501C1849 501 1778 501 1706.8 501C1635.7 501 1564.3 501 1493.2 501C1422 501 1351 501 1280 501C1209 501 1138 501 1066.8 501C995.7 501 924.3 501 853.2 501C782 501 711 501 640 501C569 501 498 501 426.8 501C355.7 501 284.3 501 213.2 501C142 501 71 501 35.5 501L0 501Z" fill="#5c1795"></path><path d="M0 277L35.5 254.2C71 231.3 142 185.7 213.2 177.3C284.3 169 355.7 198 426.8 226.7C498 255.3 569 283.7 640 275.2C711 266.7 782 221.3 853.2 209.3C924.3 197.3 995.7 218.7 1066.8 229C1138 239.3 1209 238.7 1280 245.3C1351 252 1422 266 1493.2 249.2C1564.3 232.3 1635.7 184.7 1706.8 176.5C1778 168.3 1849 199.7 1884.5 215.3L1920 231L1920 501L1884.5 501C1849 501 1778 501 1706.8 501C1635.7 501 1564.3 501 1493.2 501C1422 501 1351 501 1280 501C1209 501 1138 501 1066.8 501C995.7 501 924.3 501 853.2 501C782 501 711 501 640 501C569 501 498 501 426.8 501C355.7 501 284.3 501 213.2 501C142 501 71 501 35.5 501L0 501Z" fill="#701ea3"></path><path d="M0 315L35.5 321.8C71 328.7 142 342.3 213.2 346.7C284.3 351 355.7 346 426.8 326C498 306 569 271 640 273.7C711 276.3 782 316.7 853.2 327.7C924.3 338.7 995.7 320.3 1066.8 302.8C1138 285.3 1209 268.7 1280 265.3C1351 262 1422 272 1493.2 285.2C1564.3 298.3 1635.7 314.7 1706.8 304.2C1778 293.7 1849 256.3 1884.5 237.7L1920 219L1920 501L1884.5 501C1849 501 1778 501 1706.8 501C1635.7 501 1564.3 501 1493.2 501C1422 501 1351 501 1280 501C1209 501 1138 501 1066.8 501C995.7 501 924.3 501 853.2 501C782 501 711 501 640 501C569 501 498 501 426.8 501C355.7 501 284.3 501 213.2 501C142 501 71 501 35.5 501L0 501Z" fill="#8426b1"></path><path d="M0 336L35.5 327.8C71 319.7 142 303.3 213.2 300.8C284.3 298.3 355.7 309.7 426.8 318.7C498 327.7 569 334.3 640 336C711 337.7 782 334.3 853.2 326.3C924.3 318.3 995.7 305.7 1066.8 297.5C1138 289.3 1209 285.7 1280 299.5C1351 313.3 1422 344.7 1493.2 357.2C1564.3 369.7 1635.7 363.3 1706.8 360.7C1778 358 1849 359 1884.5 359.5L1920 360L1920 501L1884.5 501C1849 501 1778 501 1706.8 501C1635.7 501 1564.3 501 1493.2 501C1422 501 1351 501 1280 501C1209 501 1138 501 1066.8 501C995.7 501 924.3 501 853.2 501C782 501 711 501 640 501C569 501 498 501 426.8 501C355.7 501 284.3 501 213.2 501C142 501 71 501 35.5 501L0 501Z" fill="#982ebf"></path><path d="M0 401L35.5 409.7C71 418.3 142 435.7 213.2 438.5C284.3 441.3 355.7 429.7 426.8 413.8C498 398 569 378 640 368.2C711 358.3 782 358.7 853.2 370.8C924.3 383 995.7 407 1066.8 425.5C1138 444 1209 457 1280 460.3C1351 463.7 1422 457.3 1493.2 453.5C1564.3 449.7 1635.7 448.3 1706.8 446.7C1778 445 1849 443 1884.5 442L1920 441L1920 501L1884.5 501C1849 501 1778 501 1706.8 501C1635.7 501 1564.3 501 1493.2 501C1422 501 1351 501 1280 501C1209 501 1138 501 1066.8 501C995.7 501 924.3 501 853.2 501C782 501 711 501 640 501C569 501 498 501 426.8 501C355.7 501 284.3 501 213.2 501C142 501 71 501 35.5 501L0 501Z" fill="#ad36cd"></path></svg>